<svg xmlns="http://www.w3.org/2000/svg" width="1100" height="540" viewBox="0 0 1100 540">
<style>.b{fill:#f0fff4;stroke:#2f855a;stroke-width:2;rx:12}.t{font:700 24px Arial;fill:#1a202c}.s{font:16px Arial;fill:#1a202c}.a{stroke:#1a202c;stroke-width:3;marker-end:url(#m)}</style>
<defs><marker id="m" markerWidth="10" markerHeight="10" refX="8" refY="3" orient="auto"><path d="M0,0 L0,6 L9,3 z" fill="#1a202c"/></marker></defs>
<text x="30" y="40" class="t">Offline Sync and Purge Flow</text>
<rect x="40" y="90" width="190" height="90" class="b"/><text x="65" y="125" class="s">Offline Verify</text><text x="65" y="150" class="s">Create event</text>
<rect x="290" y="90" width="210" height="90" class="b"/><text x="315" y="125" class="s">Encrypted Queue</text><text x="315" y="150" class="s">status = PENDING</text>
<rect x="560" y="90" width="200" height="90" class="b"/><text x="585" y="125" class="s">Network Restored</text><text x="585" y="150" class="s">Batch upload</text>
<rect x="830" y="90" width="220" height="90" class="b"/><text x="855" y="125" class="s">AWS API</text><text x="855" y="150" class="s">Verify HMAC/JWT</text>
<rect x="830" y="260" width="220" height="90" class="b"/><text x="855" y="295" class="s">DynamoDB/S3</text><text x="855" y="320" class="s">Store accepted</text>
<rect x="560" y="260" width="200" height="90" class="b"/><text x="585" y="295" class="s">Server ACK</text><text x="585" y="320" class="s">Accepted IDs</text>
<rect x="290" y="260" width="210" height="90" class="b"/><text x="315" y="295" class="s">Local Purge</text><text x="315" y="320" class="s">Delete ACKED only</text>
<rect x="40" y="390" width="260" height="90" class="b"/><text x="65" y="425" class="s">Retry Failures</text><text x="65" y="450" class="s">Exponential backoff + jitter</text>
<line x1="230" y1="135" x2="290" y2="135" class="a"/><line x1="500" y1="135" x2="560" y2="135" class="a"/><line x1="760" y1="135" x2="830" y2="135" class="a"/><line x1="940" y1="180" x2="940" y2="260" class="a"/><line x1="830" y1="305" x2="760" y2="305" class="a"/><line x1="560" y1="305" x2="500" y2="305" class="a"/><line x1="395" y1="350" x2="230" y2="420" class="a"/>
</svg>